<svg width="187" height="48" viewBox="0 0 187 48" fill="none" xmlns="http://www.w3.org/2000/svg">
<path d="M24.912 7.304V13.88H11.184V20.984H21.456V27.368H11.184V41H2.976V7.304H24.912ZM50.442 35.048H37.866L35.85 41H27.258L39.45 7.304H48.954L61.146 41H52.458L50.442 35.048ZM48.33 28.712L44.154 16.376L40.026 28.712H48.33ZM63.7046 24.104C63.7046 20.776 64.4246 17.816 65.8646 15.224C67.3046 12.6 69.3046 10.568 71.8646 9.128C74.4566 7.656 77.3846 6.92 80.6486 6.92C84.6486 6.92 88.0726 7.976 90.9206 10.088C93.7686 12.2 95.6726 15.08 96.6326 18.728H87.6086C86.9366 17.32 85.9766 16.248 84.7286 15.512C83.5126 14.776 82.1206 14.408 80.5526 14.408C78.0246 14.408 75.9766 15.288 74.4086 17.048C72.8406 18.808 72.0566 21.16 72.0566 24.104C72.0566 27.048 72.8406 29.4 74.4086 31.16C75.9766 32.92 78.0246 33.8 80.5526 33.8C82.1206 33.8 83.5126 33.432 84.7286 32.696C85.9766 31.96 86.9366 30.888 87.6086 29.48H96.6326C95.6726 33.128 93.7686 36.008 90.9206 38.12C88.0726 40.2 84.6486 41.24 80.6486 41.24C77.3846 41.24 74.4566 40.52 71.8646 39.08C69.3046 37.608 67.3046 35.576 65.8646 32.984C64.4246 30.392 63.7046 27.432 63.7046 24.104ZM148.267 7.304L139.483 41H129.547L124.171 18.824L118.603 41H108.667L100.123 7.304H108.907L113.755 31.832L119.755 7.304H128.779L134.539 31.832L139.435 7.304H148.267ZM173.6 35.048H161.024L159.008 41H150.416L162.608 7.304H172.112L184.304 41H175.616L173.6 35.048ZM171.488 28.712L167.312 16.376L163.184 28.712H171.488Z" fill="#2563EB"/>
</svg>
